<?xml version="1.0" standalone="no"?>
<!DOCTYPE svg PUBLIC "-//W3C//DTD SVG 20010904//EN"
 "http://www.w3.org/TR/2001/REC-SVG-20010904/DTD/svg10.dtd">
<svg version="1.0" xmlns="http://www.w3.org/2000/svg"
 width="78.000000pt" height="78.000000pt" viewBox="0 0 78.000000 78.000000"
 preserveAspectRatio="xMidYMid meet">
<metadata>
Created by potrace 1.11, written by Peter Selinger 2001-2013
</metadata>
<g transform="translate(0.000000,78.000000) scale(0.100000,-0.100000)"
fill="#000000" stroke="none">
<path d="M382 714 c2 -13 -4 -20 -19 -22 -23 -3 -33 -22 -12 -22 7 0 9 -10 5
-25 -6 -25 8 -36 17 -12 3 9 9 9 27 -1 12 -7 25 -10 28 -6 4 4 1 9 -6 11 -10
4 -8 11 9 29 l22 24 -26 0 c-17 0 -27 5 -27 14 0 8 -5 18 -11 21 -6 4 -9 0 -7
-11z m18 -49 c-7 -8 -14 -15 -15 -15 -2 0 -5 7 -9 15 -4 10 1 15 16 15 17 0
18 -2 8 -15z"/>
<path d="M230 665 c0 -8 -9 -15 -19 -15 -11 0 -23 -4 -26 -10 -3 -5 1 -10 10
-10 13 0 16 -6 11 -25 -6 -25 8 -36 17 -12 4 10 7 10 18 0 19 -18 45 -17 30 1
-9 10 -8 16 4 26 20 16 19 34 -1 26 -11 -4 -18 1 -21 14 -6 23 -23 27 -23 5z
m25 -34 c7 -12 -12 -24 -25 -16 -11 7 -4 25 10 25 5 0 11 -4 15 -9z"/>
<path d="M523 668 c1 -7 -8 -14 -20 -16 -26 -4 -30 -17 -9 -25 10 -4 12 -14 8
-29 -4 -19 -3 -21 9 -11 10 8 20 9 29 3 22 -14 29 -12 23 8 -2 10 3 24 11 31
9 8 16 18 16 23 0 6 -6 5 -14 -1 -12 -10 -17 -8 -26 8 -12 23 -32 29 -27 9z
m25 -40 c-6 -18 -28 -21 -28 -4 0 9 7 16 16 16 9 0 14 -5 12 -12z"/>
<path d="M117 560 c-3 -13 -11 -18 -20 -14 -8 3 -18 1 -21 -4 -3 -6 0 -12 8
-15 8 -3 12 -16 10 -34 -2 -15 -1 -22 2 -15 3 6 13 12 23 12 9 0 23 -6 30 -12
11 -11 12 -9 7 8 -4 13 -1 26 9 34 21 18 19 29 -5 23 -14 -4 -20 0 -20 10 0
24 -17 29 -23 7z m23 -41 c0 -5 -7 -9 -15 -9 -15 0 -20 12 -9 23 8 8 24 -1 24
-14z"/>
<path d="M634 563 c0 -12 -6 -18 -18 -18 -11 0 -21 -6 -24 -14 -3 -8 0 -11 7
-7 11 7 15 -3 12 -39 -2 -17 0 -17 8 -5 9 12 14 13 31 3 27 -18 32 -16 25 6
-3 11 -1 22 5 26 15 9 12 25 -4 25 -8 0 -18 9 -21 20 -8 25 -23 26 -21 3z m24
-44 c-2 -6 -8 -10 -13 -10 -5 0 -11 4 -13 10 -2 6 4 11 13 11 9 0 15 -5 13
-11z"/>
<path d="M233 525 c-8 -22 6 -33 17 -15 13 20 12 30 0 30 -6 0 -13 -7 -17 -15z"/>
<path d="M257 487 c-29 -56 -32 -67 -19 -67 5 0 23 27 40 60 23 42 28 60 19
60 -8 0 -26 -24 -40 -53z"/>
<path d="M284 453 c-43 -75 -51 -95 -50 -138 l1 -50 125 -3 c151 -4 194 6 209
48 12 35 0 77 -24 86 -13 5 -12 10 5 31 13 16 18 35 15 51 -8 48 -28 57 -133
60 l-97 4 -51 -89z m154 18 c6 -1 12 -7 12 -15 0 -21 -25 -26 -102 -17 -12 1
-10 29 2 33 9 3 30 2 88 -1z m18 -104 c4 -3 4 -13 1 -22 -9 -23 -117 -19 -117
5 0 9 3 19 6 22 7 8 102 3 110 -5z"/>
<path d="M80 425 c0 -8 -9 -15 -19 -15 -11 0 -23 -4 -26 -10 -3 -5 1 -10 10
-10 13 0 16 -6 11 -25 -6 -25 8 -36 17 -12 4 10 7 10 18 0 19 -18 45 -17 30 1
-9 10 -8 16 4 26 8 7 15 20 15 29 0 13 -2 13 -9 2 -10 -16 -31 -6 -31 15 0 8
-4 14 -10 14 -5 0 -10 -7 -10 -15z m20 -40 c0 -8 -4 -15 -9 -15 -13 0 -22 16
-14 24 11 11 23 6 23 -9z"/>
<path d="M680 428 c0 -11 -8 -18 -19 -18 -25 0 -36 -16 -17 -23 9 -4 12 -14 9
-25 -4 -16 -1 -19 21 -15 16 3 26 1 26 -6 0 -7 4 -10 9 -7 5 3 7 14 4 25 -3
11 2 21 11 24 9 4 16 11 16 17 0 6 -5 8 -11 4 -7 -4 -20 4 -30 17 -15 20 -19
21 -19 7z m20 -49 c0 -5 -7 -9 -15 -9 -15 0 -20 12 -9 23 8 8 24 -1 24 -14z"/>
<path d="M120 295 c0 -8 -9 -15 -19 -15 -25 0 -36 -16 -17 -23 10 -4 12 -14 8
-29 -5 -21 -4 -22 12 -9 13 11 20 11 28 3 18 -18 30 -14 23 8 -4 13 -1 22 9
26 9 3 16 11 16 16 0 6 -7 7 -16 4 -11 -4 -18 1 -21 14 -6 23 -23 27 -23 5z
m20 -41 c0 -17 -22 -14 -28 4 -2 7 3 12 12 12 9 0 16 -7 16 -16z"/>
<path d="M637 289 c-4 -14 -11 -20 -21 -16 -8 3 -18 2 -21 -2 -3 -5 2 -12 10
-15 11 -4 14 -13 9 -32 -6 -25 -6 -25 16 -12 18 10 24 10 27 1 7 -21 25 -15
18 6 -3 10 1 24 10 31 21 18 19 29 -5 23 -14 -4 -20 0 -20 10 0 25 -17 29 -23
6z m22 -48 c-3 -6 -10 -7 -18 -2 -7 5 -10 14 -6 21 9 14 29 -2 24 -19z"/>
<path d="M227 189 c4 -15 0 -19 -21 -19 -14 0 -26 -4 -26 -10 0 -5 7 -10 15
-10 12 0 14 -7 9 -27 -7 -26 -6 -27 10 -14 13 11 20 11 28 3 17 -17 31 -15 24
3 -3 8 1 21 9 29 20 19 19 30 -1 22 -10 -4 -18 0 -21 13 -3 11 -11 22 -18 25
-9 3 -11 -2 -8 -15z m23 -45 c0 -9 -5 -14 -12 -12 -18 6 -21 28 -4 28 9 0 16
-7 16 -16z"/>
<path d="M524 183 c0 -12 -5 -17 -16 -15 -22 3 -32 -14 -12 -22 10 -4 13 -13
9 -26 -4 -11 -2 -20 4 -20 6 0 11 5 11 10 0 7 6 7 19 0 25 -13 52 -14 31 0
-12 8 -12 11 3 28 21 23 22 33 3 26 -8 -3 -19 3 -26 15 -13 26 -28 27 -26 4z
m26 -38 c0 -8 -7 -15 -15 -15 -16 0 -20 12 -8 23 11 12 23 8 23 -8z"/>
<path d="M380 145 c0 -9 -9 -15 -25 -15 -14 0 -25 -4 -25 -10 0 -5 7 -10 15
-10 12 0 14 -7 9 -27 -7 -26 -6 -27 10 -14 13 11 20 11 28 3 18 -18 30 -14 23
8 -4 13 -1 22 9 26 9 3 16 11 16 16 0 6 -7 7 -16 4 -11 -4 -18 1 -21 14 -6 23
-23 27 -23 5z m18 -36 c-2 -6 -8 -10 -13 -10 -5 0 -11 4 -13 10 -2 6 4 11 13
11 9 0 15 -5 13 -11z"/>
</g>
</svg>
